<svg width="215" height="76" viewBox="0 0 215 76" fill="none" xmlns="http://www.w3.org/2000/svg">
<path d="M187.683 26.4668L195.999 46.2594V47.9471H190.2L188.665 43.9886H178.324L176.759 47.9471H171.082V46.2594L179.49 26.4668H187.683ZM180.288 39.0174H186.732L183.878 31.6528H183.172L180.288 39.0174Z" fill="url(#paint0_linear_4865_2264)"/>
<path d="M145.363 47.9471V26.4668H154.262L161.658 41.4723H162.21V26.4668H167.856V47.9471H158.957L151.562 32.9416H151.01V47.9471H145.363Z" fill="url(#paint1_linear_4865_2264)"/>
<path d="M121.867 47.9471V26.4668H141.138V31.438H127.851V34.8134H137.763V39.3243H127.851V42.976H141.445V47.9471H121.867Z" fill="url(#paint2_linear_4865_2264)"/>
<path d="M96.0352 47.9471V26.4668H112.82L116.81 30.456V37.2683L113.373 40.7052L117.454 46.2594V47.9471H111.562L107.021 41.503H102.019V47.9471H96.0352ZM102.019 36.6853H109.598L110.826 35.4578V32.512L109.598 31.2845H102.019V36.6853Z" fill="url(#paint3_linear_4865_2264)"/>
<path d="M84.5075 26.4668L92.8234 46.2594V47.9471H87.0237L85.4894 43.9886H75.1482L73.5832 47.9471H67.9062V46.2594L76.3143 26.4668H84.5075ZM77.1121 39.0174H83.5562L80.7024 31.6528H79.9966L77.1121 39.0174Z" fill="url(#paint4_linear_4865_2264)"/>
<path d="M30.5762 18.9741V18.9903L28.25 20.4722L30.5762 18.9741Z" fill="url(#paint5_linear_4865_2264)"/>
<path d="M61.9923 36.7739V48.3218L52.6473 54.2691L45.8372 58.5801L35.3945 52.2767L43.3766 47.136L46.3525 48.9406L46.3784 48.9567L54.0103 44.0949V41.9134L44.6841 36.1988L52.665 31.0581L54.0103 31.8832L61.9923 36.7739Z" fill="url(#paint6_linear_4865_2264)"/>
<path d="M55.4324 16L55.3829 25.3423L41.9313 33.9101V44.1051L33.9492 49.2459V29.7028L55.4324 16Z" fill="url(#paint7_linear_4865_2264)"/>
<path d="M30.5789 18.9907V58.5804L22.5969 53.4397V33.3873L17 36.9516L17.0483 27.6093L28.2527 20.4727L30.5789 18.9907Z" fill="url(#paint8_linear_4865_2264)"/>
<path d="M30.5762 18.9741V18.9903L28.25 20.4722L30.5762 18.9741Z" fill="url(#paint9_linear_4865_2264)"/>
<path d="M61.9923 36.7739V48.3218L52.6473 54.2691L45.8372 58.5801L35.3945 52.2767L43.3766 47.136L46.3525 48.9406L46.3784 48.9567L54.0103 44.0949V41.9134L44.6841 36.1988L52.665 31.0581L54.0103 31.8832L61.9923 36.7739Z" fill="url(#paint10_linear_4865_2264)"/>
<path d="M55.4324 16L55.3829 25.3423L41.9313 33.9101V44.1051L33.9492 49.2459V29.7028L55.4324 16Z" fill="url(#paint11_linear_4865_2264)"/>
<path d="M30.5789 18.9907V58.5804L22.5969 53.4397V33.3873L17 36.9516L17.0483 27.6093L28.2527 20.4727L30.5789 18.9907Z" fill="url(#paint12_linear_4865_2264)"/>
<defs>
<linearGradient id="paint0_linear_4865_2264" x1="171.082" y1="37.207" x2="195.999" y2="37.207" gradientUnits="userSpaceOnUse">
<stop stop-color="#010612"/>
<stop offset="1" stop-color="#0F131F"/>
</linearGradient>
<linearGradient id="paint1_linear_4865_2264" x1="145.363" y1="37.207" x2="167.856" y2="37.207" gradientUnits="userSpaceOnUse">
<stop stop-color="#010612"/>
<stop offset="1" stop-color="#0F131F"/>
</linearGradient>
<linearGradient id="paint2_linear_4865_2264" x1="121.867" y1="37.207" x2="141.445" y2="37.207" gradientUnits="userSpaceOnUse">
<stop stop-color="#010612"/>
<stop offset="1" stop-color="#0F131F"/>
</linearGradient>
<linearGradient id="paint3_linear_4865_2264" x1="96.0352" y1="37.207" x2="117.454" y2="37.207" gradientUnits="userSpaceOnUse">
<stop stop-color="#010612"/>
<stop offset="1" stop-color="#0F131F"/>
</linearGradient>
<linearGradient id="paint4_linear_4865_2264" x1="67.9062" y1="37.207" x2="92.8234" y2="37.207" gradientUnits="userSpaceOnUse">
<stop stop-color="#010612"/>
<stop offset="1" stop-color="#0F131F"/>
</linearGradient>
<linearGradient id="paint5_linear_4865_2264" x1="29.4131" y1="18.9741" x2="29.4131" y2="20.4722" gradientUnits="userSpaceOnUse">
<stop stop-color="#F2FF3C"/>
<stop offset="1" stop-color="#75BE00"/>
</linearGradient>
<linearGradient id="paint6_linear_4865_2264" x1="48.6934" y1="31.0581" x2="48.6934" y2="58.5801" gradientUnits="userSpaceOnUse">
<stop stop-color="#F2FF3C"/>
<stop offset="1" stop-color="#75BE00"/>
</linearGradient>
<linearGradient id="paint7_linear_4865_2264" x1="44.6908" y1="16" x2="44.6908" y2="49.2459" gradientUnits="userSpaceOnUse">
<stop stop-color="#F2FF3C"/>
<stop offset="1" stop-color="#75BE00"/>
</linearGradient>
<linearGradient id="paint8_linear_4865_2264" x1="23.7895" y1="18.9907" x2="23.7895" y2="58.5804" gradientUnits="userSpaceOnUse">
<stop stop-color="#F2FF3C"/>
<stop offset="1" stop-color="#75BE00"/>
</linearGradient>
<linearGradient id="paint9_linear_4865_2264" x1="29.4131" y1="18.9741" x2="29.4131" y2="20.4722" gradientUnits="userSpaceOnUse">
<stop stop-color="#FF973C"/>
<stop offset="1" stop-color="#FF6A00"/>
</linearGradient>
<linearGradient id="paint10_linear_4865_2264" x1="48.6934" y1="31.0581" x2="48.6934" y2="58.5801" gradientUnits="userSpaceOnUse">
<stop stop-color="#FF973C"/>
<stop offset="1" stop-color="#FF6A00"/>
</linearGradient>
<linearGradient id="paint11_linear_4865_2264" x1="44.6908" y1="16" x2="44.6908" y2="49.2459" gradientUnits="userSpaceOnUse">
<stop stop-color="#FF973C"/>
<stop offset="1" stop-color="#FF6A00"/>
</linearGradient>
<linearGradient id="paint12_linear_4865_2264" x1="23.7895" y1="18.9907" x2="23.7895" y2="58.5804" gradientUnits="userSpaceOnUse">
<stop stop-color="#FF973C"/>
<stop offset="1" stop-color="#FF6A00"/>
</linearGradient>
</defs>
</svg>
